<svg width="57" height="50" viewBox="0 0 57 50" fill="none" xmlns="http://www.w3.org/2000/svg">
<g clip-path="url(#clip0_1_16)">
<path d="M55.7918 0.00012207H13.2387C12.7165 0.00012207 12.2931 0.373246 12.2931 0.833454V13.3334H14.1843V1.66679H54.8462V47.5C54.8553 47.9383 54.4716 48.3053 53.9753 48.3334C53.8939 48.3334 53.8126 48.3275 53.7313 48.3259C53.5639 48.3217 53.3965 48.3184 53.232 48.3034C53.2178 48.3034 53.2046 48.3034 53.1904 48.2984C50.102 48.0009 47.6624 45.8531 47.3219 43.1317C47.3219 43.12 47.3171 43.1075 47.3152 43.0959C47.2923 42.8978 47.281 42.699 47.2812 42.5V40.8334C47.2812 40.3732 46.8578 40 46.3356 40H14.1843V25.0001H12.2931V40H4.7281C4.20587 40 3.78247 40.3732 3.78247 40.8334V42.5C3.78767 46.6402 7.59499 49.9954 12.2931 50H53.9951C55.5296 49.9646 56.7493 48.8527 56.7374 47.5V0.833454C56.7374 0.373246 56.314 0.00012207 55.7918 0.00012207ZM12.2931 48.3334C8.63908 48.3297 5.67786 45.7201 5.67372 42.5V41.6667H45.3899V42.5C45.3912 42.7748 45.4092 43.0494 45.4438 43.3225C45.4524 43.395 45.4684 43.465 45.4798 43.5367C45.511 43.7384 45.5488 43.9392 45.5989 44.1367C45.6159 44.2059 45.6377 44.2742 45.6576 44.3434C45.7152 44.5442 45.7805 44.7417 45.8561 44.9367C45.8779 44.9925 45.9006 45.0475 45.9242 45.1034C46.0103 45.31 46.1077 45.5117 46.2145 45.7109C46.2372 45.7517 46.258 45.7942 46.2807 45.8317C46.3993 46.0428 46.5294 46.248 46.6713 46.4475C46.6902 46.4742 46.7072 46.5017 46.7261 46.5309C46.8802 46.7437 47.0467 46.9495 47.2245 47.1475L47.2547 47.1834C47.4611 47.4118 47.6821 47.6296 47.9167 47.8359C48.1203 48.0137 48.3314 48.1803 48.5502 48.3359L12.2931 48.3334Z" fill="white"/>
<path d="M31.2056 23.3336C31.4564 23.3336 31.6969 23.2457 31.8742 23.0894L35.6567 19.7561C36.0258 19.4307 36.0258 18.9032 35.6567 18.5778L31.8742 15.2444C31.6969 15.0882 31.4564 15.0003 31.2056 15.0003H4.72812C2.1169 15.0003 0 16.8658 0 19.1669C0 21.4681 2.1169 23.3336 4.72812 23.3336H31.2056ZM30.9616 16.7969L33.651 19.1669L30.9616 21.5369L30.2893 19.1669L30.9616 16.7969ZM7.565 16.6669H29.0496L28.5768 18.3336H9.45624V20.0003H28.5768L29.0496 21.6669H7.565V16.6669ZM1.89125 19.1669C1.89125 17.7862 3.16134 16.6669 4.72812 16.6669H5.67375V21.6669H4.72812C3.16134 21.6669 1.89125 20.5477 1.89125 19.1669Z" fill="white"/>
<path d="M21.7494 35.8332H50.1181C50.6403 35.8332 51.0637 35.4601 51.0637 34.9999V9.99996C51.0636 9.53976 50.6402 9.16674 50.1179 9.16684C49.8672 9.16684 49.6269 9.25465 49.4496 9.4108L21.0808 34.4107C20.7116 34.7362 20.7117 35.2639 21.0811 35.5893C21.2584 35.7454 21.4987 35.8332 21.7494 35.8332ZM49.1725 12.0116V14.1666H47.2812V15.8333H49.1725V17.4999H47.2812V19.1666H49.1725V20.8333H47.2812V22.4999H49.1725V24.1666H47.2812V25.8333H49.1725V27.4999H47.2812V29.1666H49.1725V30.8332H47.2812V32.4999H49.1725V34.1666H47.2812V32.4999H45.39V34.1666H43.4988V32.4999H41.6075V34.1666H39.7163V32.4999H37.825V34.1666H35.9338V32.4999H34.0425V34.1666H32.1513V32.4999H30.26V34.1666H28.3688V32.4999H26.4775V34.1666H24.0321L49.1725 12.0116Z" fill="white"/>
<path d="M35.4467 30.8337H44.4444C44.9666 30.8337 45.39 30.4605 45.39 30.0003V22.0712C45.3899 21.611 44.9665 21.238 44.4441 21.2381C44.1934 21.2381 43.9531 21.3259 43.7758 21.482L34.7782 29.4112C34.4089 29.7367 34.409 30.2643 34.7784 30.5897C34.9557 30.7459 35.196 30.8337 35.4467 30.8337ZM43.4987 24.0837V29.167H37.7304L43.4987 24.0837Z" fill="white"/>
<path d="M43.4987 5.00043H24.5862V6.66709H43.4987V5.00043Z" fill="white"/>
<path d="M46.3356 8.33295H21.7494V9.99961H46.3356V8.33295Z" fill="white"/>
<path d="M21.7494 25.8333H16.0756V27.4999H21.7494V25.8333Z" fill="white"/>
<path d="M19.8581 29.1665H16.0756V30.8332H19.8581V29.1665Z" fill="white"/>
</g>
<defs>
<clipPath id="clip0_1_16">
<rect width="56.7376" height="50" fill="white"/>
</clipPath>
</defs>
</svg>
